PathFileType	4	(X/Y/Z)	D:/2025/Ayumi_22_01_2025/22-01-2025/static_00_hjc.trc	
DataRate	CameraRate	NumFrames	NumMarkers	Units	OrigDataRate	OrigDataStartFrame	OrigNumFrames	
200.00	200.00	6	66	mm	200.00	184	352	
Frame#	Time	FHD			LBHD			RBHD			LBAR			RASI			RSACR			LSACR			LASI			USACR			C7			CLAV			T10			RSHO			LSHO			LTHI1			LTHI3			LTHI2			LLFC			LTIB1			LTIB2			LTIB3			LMMAL			LLMAL			LHEE			LMT1			LMT5			LMT3			RTHI1			RTHI2			RTHI3			RLFC			RMFC			RTIB1			RTIB3			RTIB2			RLMAL			RMMAL			RHEE			RMT5			RMT1			RMT3			LMEP			LLEP			LDUPA			LMUPA			LUUPA			LUL			LRAD			LRFIN			RUL			RRAD			RUFIN			RMEP			RLEP			RMUPA			RDUPA			RUUPA			LMFC			RBAR			*59			LAJC			RAJC			LKJC			RKJC			LHJC			RHJC			
		X1	Y1	Z1	X2	Y2	Z2	X3	Y3	Z3	X4	Y4	Z4	X5	Y5	Z5	X6	Y6	Z6	X7	Y7	Z7	X8	Y8	Z8	X9	Y9	Z9	X10	Y10	Z10	X11	Y11	Z11	X12	Y12	Z12	X13	Y13	Z13	X14	Y14	Z14	X15	Y15	Z15	X16	Y16	Z16	X17	Y17	Z17	X18	Y18	Z18	X19	Y19	Z19	X20	Y20	Z20	X21	Y21	Z21	X22	Y22	Z22	X23	Y23	Z23	X24	Y24	Z24	X25	Y25	Z25	X26	Y26	Z26	X27	Y27	Z27	X28	Y28	Z28	X29	Y29	Z29	X30	Y30	Z30	X31	Y31	Z31	X32	Y32	Z32	X33	Y33	Z33	X34	Y34	Z34	X35	Y35	Z35	X36	Y36	Z36	X37	Y37	Z37	X38	Y38	Z38	X39	Y39	Z39	X40	Y40	Z40	X41	Y41	Z41	X42	Y42	Z42	X43	Y43	Z43	X44	Y44	Z44	X45	Y45	Z45	X46	Y46	Z46	X47	Y47	Z47	X48	Y48	Z48	X49	Y49	Z49	X50	Y50	Z50	X51	Y51	Z51	X52	Y52	Z52	X53	Y53	Z53	X54	Y54	Z54	X55	Y55	Z55	X56	Y56	Z56	X57	Y57	Z57	X58	Y58	Z58	X59	Y59	Z59	X60	Y60	Z60	X61	Y61	Z61	X62	Y62	Z62	X63	Y63	Z63	X64	Y64	Z64	X65	Y65	Z65	X66	Y66	Z66	

177	0.880	106.87881	968.12347	1611.09094	125.34056	907.77924	1594.02661	143.51396	1038.77844	1583.33020	1040.87305	2031.33801	20.05070	162.15680	1103.35364	927.16522	322.58096	1015.77600	960.03510	319.38248	942.14844	960.70898	148.98154	866.04083	912.32050	314.55527	980.06543	970.42944	296.62088	964.49872	1401.49951	162.27875	981.63733	1329.07288	319.63443	974.37109	1117.79871	235.61592	1113.42310	1406.36267	214.93626	831.51489	1398.73303	237.23296	807.98877	606.54425	261.80725	819.23962	546.10889	211.10521	818.30176	545.88104	229.83217	841.07501	449.40643	256.62692	819.71350	233.62057	306.87921	815.70441	232.46906	280.07199	825.85004	173.51543	284.35519	914.69098	71.80171	297.87613	843.43542	69.61344	341.00174	881.71936	33.96449	143.87833	873.66663	39.20322	169.43019	796.96906	26.84981	144.84734	837.71783	37.23403	257.41718	1157.04126	608.00366	229.47095	1149.42334	549.42993	281.33594	1147.59888	547.69281	240.08141	1125.71960	455.15137	247.89226	1024.54187	449.33704	271.22418	1159.85706	277.24442	294.25656	1155.68860	215.24518	322.08890	1160.88037	274.99820	307.61865	1134.95007	73.57840	276.86469	1063.99695	75.60661	351.60953	1095.36780	28.39181	178.77873	1179.42041	29.35910	151.09747	1115.53174	37.71388	156.15883	1148.28772	36.01955	263.89447	1374.89673	1277.46350	302.60474	1378.17883	1337.76514	312.22910	1278.43579	1350.63062	308.92148	1218.13989	1362.77271	327.64221	1208.37500	1317.51550	231.52696	327.23193	1333.85852	167.80937	320.01376	1351.19238	179.02061	245.68939	1348.37341	281.91162	1612.27234	1339.01343	221.59616	1613.08105	1354.85474	220.92197	1687.23865	1351.46826	202.52408	581.62354	1278.17175	253.16614	564.02490	1329.62109	252.14842	644.96686	1361.63171	281.96100	640.68738	1322.12842	268.18964	704.79694	1367.91003	243.06856	939.93970	441.29465							291.11566	879.06320	70.70758	292.24167	1099.47351	74.59251	236.45036	890.50735	445.35054	243.98683	1075.13074	452.24420	234.18201	904.09464	936.51474	242.36888	1059.56482	943.60016 
178	0.885	106.85744	968.12323	1611.06494	125.33762	907.80450	1593.92859	143.48003	1038.76843	1583.32483	1040.90979	2031.36975	20.04261	162.18578	1103.33264	927.18835	322.58115	1015.77759	960.03076	319.39432	942.16229	960.70197	148.98184	866.04578	912.32837	314.54861	980.04730	970.48053	296.61652	964.49335	1401.49268	162.27684	981.64221	1329.05359	319.64185	974.37000	1117.82642	235.62244	1113.40723	1406.36450	214.93292	831.49829	1398.74902	237.25893	807.98822	606.53442	261.81561	819.27502	546.10040	211.10739	818.23492	545.89587	229.82779	841.06525	449.39798	256.64313	819.71906	233.61340	306.86911	815.70477	232.50478	280.05374	825.86304	173.51294	284.31345	914.71893	71.82564	297.87042	843.43536	69.61748	340.97897	881.66309	33.97554	143.86647	873.68695	39.13603	169.43336	796.97821	26.82602	144.84808	837.72980	37.21222	257.37631	1157.05054	608.02295	229.57481	1149.41528	549.34863	281.33673	1147.59985	547.67920	240.08728	1125.72900	455.12946	247.77182	1024.62305	449.43286	271.20880	1159.85364	277.25168	294.26285	1155.66223	215.27368	322.06741	1160.87708	274.99493	307.61612	1134.95703	73.58164	276.84875	1064.00342	75.61523	351.60986	1095.35425	28.39086	178.78470	1179.41296	29.33430	151.09407	1115.54333	37.72290	156.17088	1148.27356	36.00001	263.89267	1374.90247	1277.51404	302.58215	1378.18079	1337.78796	312.21939	1278.41821	1350.65698	308.89371	1218.13684	1362.80359	327.62384	1208.37500	1317.51587	231.53101	327.22855	1333.80798	167.80122	319.97971	1351.19751	179.01564	245.67886	1348.33118	281.91406	1612.27380	1339.05493	221.61461	1613.06677	1354.90930	220.92439	1687.21606	1351.56055	202.53165	581.59167	1278.16626	253.17096	564.01599	1329.57922	252.13333	644.95874	1361.61365	281.96768	640.67224	1322.11658	268.18018	704.80530	1367.84961	243.08282	940.04279	441.23743							291.09193	879.07715	70.72156	292.23244	1099.48022	74.59844	236.45531	890.55402	445.31770	243.92955	1075.17603	452.28116	234.18808	904.10403	936.51517	242.38346	1059.55511	943.60956 
179	0.890	106.83999	968.11884	1611.04407	125.28708	907.79150	1593.93958	143.44994	1038.76953	1583.32129	1040.92566	2031.40002	20.04107	162.16385	1103.33923	927.19250	322.59198	1015.78424	960.02966	319.40457	942.15814	960.69965	148.99785	866.02753	912.32245	314.58804	980.09454	970.38855	296.59967	964.49463	1401.47986	162.25984	981.63074	1329.06091	319.63159	974.37329	1117.81873	235.58325	1113.40149	1406.39050	214.89218	831.48792	1398.73352	237.26822	807.97791	606.55298	261.78510	819.27460	546.11249	211.14552	818.11884	545.94568	229.84361	841.06244	449.40244	256.61945	819.72107	233.62001	306.88007	815.69623	232.48721	280.07129	825.85187	173.51729	284.30630	914.71887	71.81470	297.88116	843.43896	69.61397	340.99973	881.69971	33.98122	143.82961	873.69666	39.16389	169.43372	796.97595	26.83289	144.84937	837.72540	37.22896	257.41077	1157.05200	607.98883	229.51152	1149.39331	549.41022	281.33862	1147.59424	547.67700	240.07660	1125.72412	455.16150	247.83369	1024.58325	449.38989	271.20831	1159.84729	277.25821	294.26334	1155.66895	215.26567	322.30756	1161.17078	275.23502	307.61172	1134.95789	73.56778	276.85367	1063.99988	75.60515	351.60342	1095.36353	28.36737	178.77332	1179.40808	29.35222	151.11374	1115.54602	37.69759	156.17052	1148.27625	36.00927	263.90863	1374.90686	1277.54175	302.57288	1378.16064	1337.84399	312.21780	1278.44263	1350.62329	308.90363	1218.12439	1362.79492	327.60532	1208.35913	1317.53906	231.53156	327.22470	1333.79395	167.81969	319.94910	1351.15222	179.06230	245.65900	1348.30774	281.92554	1612.26685	1339.10364	221.62384	1613.06433	1354.97278	220.92953	1687.22742	1351.59448	202.53177	581.60718	1278.14636	253.18037	564.00745	1329.55664	252.13010	644.95587	1361.60144	281.95667	640.67468	1322.10876	268.16656	704.79016	1367.87048	243.10028	940.03168	441.23126							291.09373	879.07892	70.71433	292.23270	1099.47888	74.58646	236.47195	890.54706	445.31685	243.95515	1075.15369	452.27570	234.20121	904.09283	936.51105	242.37791	1059.56174	943.61108 
180	0.895	106.78968	968.09570	1611.06384	125.26939	907.78949	1593.94067	143.43871	1038.75085	1583.31445	1040.91199	2031.43030	20.06306	162.21024	1103.38953	927.10492	322.58844	1015.79828	960.01587	319.40945	942.16418	960.69244	149.00841	866.03729	912.33575	314.58231	980.08704	970.40808	296.59134	964.47888	1401.48926	162.25549	981.61646	1329.05872	319.62537	974.37744	1117.83435	235.58755	1113.36926	1406.40515	214.89212	831.47510	1398.76563	237.28218	807.97394	606.56195	261.79611	819.26715	546.10480	211.13104	818.29767	545.88983	229.84421	841.06592	449.41226	256.64011	819.71606	233.64011	306.87299	815.69403	232.49797	280.03891	825.85126	173.52382	284.29108	914.72314	71.84299	297.87640	843.44263	69.61497	340.99426	881.68225	33.98546	143.88249	873.67395	39.20090	169.43446	796.97906	26.82538	144.85329	837.71490	37.23900	257.40552	1157.03540	608.01349	229.55016	1149.38977	549.34949	281.31137	1147.60107	547.68524	240.07291	1125.70935	455.17596	247.82907	1024.58154	449.39859	271.20218	1159.84570	277.27008	294.26541	1155.66919	215.25346	322.08588	1160.88855	275.01181	307.61935	1134.94653	73.57777	276.88889	1064.01599	75.61095	351.60388	1095.36072	28.39133	178.76289	1179.40649	29.34677	151.10754	1115.53455	37.70583	156.16916	1148.28320	36.02383	263.90918	1374.89136	1277.58777	302.57712	1378.14038	1337.87415	312.19061	1278.40869	1350.70471	308.90283	1218.10461	1362.82263	327.58813	1208.36475	1317.53979	231.52460	327.20819	1333.76648	167.82329	319.95050	1351.11377	179.02631	245.66844	1348.27954	281.93484	1612.27124	1339.15210	221.53284	1613.48340	1355.13367	220.94197	1687.20520	1351.68872	202.53621	581.60321	1278.12476	253.15808	564.01129	1329.54822	252.11118	644.94489	1361.60596	281.94983	640.67090	1322.10327	268.16342	704.78772	1367.85535	243.07463	940.05127	441.25076							291.08374	879.08289	70.72898	292.25412	1099.48126	74.59436	236.45942	890.55859	445.33151	243.95099	1075.14545	452.28728	234.20893	904.10074	936.51410	242.39934	1059.59390	943.56039 
181	0.900	106.77184	968.05988	1611.08850	125.21088	907.75702	1593.98962	143.40631	1038.74329	1583.30920	1040.96570	2031.46680	20.05888	162.19836	1103.37537	927.13354	322.59717	1015.79169	960.03607	319.57797	942.17645	960.64716	149.00923	866.02374	912.33020	314.58969	980.09448	970.41345	296.56787	964.45892	1401.51208	162.25146	981.63019	1329.03894	319.63492	974.37720	1117.82495	235.58479	1113.36353	1406.39441	214.87534	831.47198	1398.74963	237.26347	807.98224	606.54596	261.80637	819.23938	546.11615	211.12152	818.30951	545.88226	229.83727	841.08600	449.41504	256.64542	819.72479	233.63950	306.88889	815.67798	232.49811	280.05600	825.85608	173.52388	284.28009	914.72552	71.82524	297.85529	843.44391	69.62081	341.00531	881.75464	33.96513	143.87646	873.67004	39.21439	169.42375	796.95966	26.84734	144.84048	837.71368	37.24470	257.39319	1157.02893	608.00977	229.50548	1149.40723	549.39105	281.32590	1147.60071	547.66302	240.10643	1125.71851	455.11752	247.72038	1024.65588	449.48145	271.29590	1159.95764	276.98096	294.25540	1155.66370	215.28728	322.07526	1160.90723	275.02057	307.61618	1134.96289	73.56153	276.85220	1063.99927	75.62493	351.59998	1095.34790	28.41899	178.78423	1179.43091	29.31783	151.10703	1115.54932	37.70297	156.15659	1148.27759	36.01981	263.91843	1374.89307	1277.61621	302.57388	1378.15527	1337.89233	312.20016	1278.44104	1350.66028	308.89139	1218.10693	1362.80737	327.58694	1208.34863	1317.54663	231.52158	327.20554	1333.73987	167.81133	319.93457	1351.09802	179.05597	245.65253	1348.21863	281.91675	1612.24866	1339.24268	221.53203	1613.47070	1355.19812	220.96620	1687.21423	1351.74084	202.55182	581.58624	1278.11316	253.16371	564.02173	1329.53003	252.10394	644.94122	1361.57385	281.92310	640.66058	1322.11890	268.14767	704.76495	1367.85681	243.00429	940.11438	441.29755							291.06769	879.08472	70.72303	292.23419	1099.48108	74.59323	236.42078	890.60019	445.35629	243.91341	1075.18719	452.29948	234.29360	904.10010	936.48868	242.39777	1059.58353	943.58481 
182	0.905	106.74491	968.03369	1611.10889	125.17891	907.74719	1593.99841	143.38708	1038.73181	1583.30408	1040.99207	2031.51575	20.04012	162.19724	1103.34753	927.21576	322.59790	1015.78638	960.05499	319.41837	942.15790	960.71936	149.02322	866.02118	912.33252	314.59525	980.08234	970.40131	296.55676	964.44550	1401.51074	162.24562	981.62219	1329.04065	319.65033	974.37164	1117.84912	235.56401	1113.34448	1406.43665	214.85136	831.45612	1398.76343	237.29741	807.97168	606.56793	261.81735	819.24658	546.14630	211.13927	818.29614	545.89392	229.85052	841.06995	449.40601	256.65451	819.71741	233.61469	306.85919	815.69275	232.47876	280.06970	825.84686	173.54147	284.30228	914.72717	71.81431	297.86554	843.44086	69.63197	340.98938	881.70154	33.98476	143.86299	873.67126	39.19655	169.43318	796.97821	26.84139	144.83539	837.71179	37.25229	257.37820	1157.04663	608.02460	229.55391	1149.43079	549.33319	281.31223	1147.59509	547.68103	240.08543	1125.71411	455.16068	247.86594	1024.56946	449.37027	271.20105	1159.85132	277.27332	294.24982	1155.67712	215.26991	322.04437	1160.86914	274.99603	307.61456	1134.96057	73.56168	276.85953	1064.01184	75.62850	351.60141	1095.33789	28.42879	178.78612	1179.42847	29.32005	151.10359	1115.54761	37.71023	156.15973	1148.27051	36.00825	263.86673	1374.91150	1277.63782	302.58255	1378.14380	1337.89917	312.18994	1278.40186	1350.71997	308.88501	1218.10022	1362.78943	327.58438	1208.33496	1317.56628	231.51927	327.19623	1333.72522	167.79173	319.95776	1351.05823	179.06100	245.63670	1348.18530	281.92276	1612.23181	1339.29797	221.52214	1613.47107	1355.28003	220.97717	1687.21094	1351.80139	202.54669	581.59351	1278.09436	253.15294	564.00354	1329.53589	252.08684	644.94275	1361.57312	281.91962	640.65027	1322.11621	268.15079	704.75793	1367.85364	243.07567	940.04974	441.24591							291.08391	879.08401	70.72314	292.23705	1099.48621	74.59509	236.46310	890.55984	445.32596	243.97569	1075.14178	452.26547	234.22079	904.08954	936.52594	242.39757	1059.56696	943.63538 
